<svg width="200" height="50" viewBox="0 0 5386 894" fill="none" xmlns="http://www.w3.org/2000/svg" class="select-none w-auto h-6 sm:h-9 md:h-11 lg:h-14 xl:h-16 max-w-full object-contain" aria-label="Айден Маркет"><style>
        .logo-text { fill: hsl(var(--foreground)); }
        .logo-icon { fill: #08CAED; }
      </style><path class="logo-text" d="M1761.19 717.594C1761.86 719.541 1760.41 721.565 1758.35 721.565H1658.18C1656.88 721.565 1655.72 720.718 1655.32 719.471L1612.99 585.842C1612.6 584.595 1611.44 583.748 1610.13 583.748H1379.21C1377.9 583.748 1376.74 584.595 1376.35 585.842L1334.01 719.471C1333.62 720.718 1332.46 721.565 1331.15 721.565H1230.98C1228.93 721.565 1227.48 719.544 1228.14 717.598L1428.86 128.259C1429.27 127.044 1430.41 126.227 1431.7 126.227H1556.9C1558.19 126.227 1559.33 127.042 1559.74 128.256L1761.19 717.594ZM1480.61 255.23L1404.88 495.714C1404.27 497.647 1405.71 499.615 1407.74 499.615H1581.6C1583.63 499.615 1585.07 497.647 1584.46 495.714L1508.73 255.23L1495.62 210.268C1495.49 209.847 1495.11 209.558 1494.67 209.558V209.558C1494.23 209.558 1493.84 209.847 1493.72 210.268L1480.61 255.23Z"></path><path class="logo-text" d="M2041.59 244.929C1964.13 244.929 1931.41 205.075 1934.17 129.227C1934.23 127.627 1935.55 126.342 1937.16 126.342H1988.81C1990.54 126.342 1991.91 127.823 1991.83 129.557C1989.8 171.387 2004.79 190.443 2041.59 190.443C2078.4 190.443 2094.09 171.387 2092.1 129.557C2092.02 127.823 2093.39 126.342 2095.12 126.342H2146.09C2147.67 126.342 2148.98 127.594 2149.07 129.171C2153.25 205.056 2119.81 244.929 2041.59 244.929ZM2252.45 248.82C2254.11 248.82 2255.45 250.163 2255.45 251.82V718.565C2255.45 720.222 2254.11 721.565 2252.45 721.565H2170.39C2168.74 721.565 2167.39 720.222 2167.39 718.565V401.861L2169.45 382.533C2169.55 381.666 2168.99 380.86 2168.15 380.633V380.633C2167.29 380.4 2166.4 380.839 2166.05 381.659L2159.39 397.523C2159.3 397.743 2159.18 397.952 2159.04 398.144L1921.14 720.347C1920.57 721.113 1919.67 721.565 1918.72 721.565H1831.48C1829.82 721.565 1828.48 720.222 1828.48 718.565V251.82C1828.48 250.163 1829.82 248.82 1831.48 248.82H1913.54C1915.19 248.82 1916.54 250.163 1916.54 251.82V570.126L1914.46 591.061C1914.38 591.927 1914.93 592.728 1915.77 592.956V592.956C1916.63 593.189 1917.53 592.748 1917.88 591.926L1924.54 576.058C1924.63 575.843 1924.74 575.64 1924.88 575.452L2162.06 250.053C2162.62 249.278 2163.52 248.82 2164.48 248.82H2252.45Z"></path><path class="logo-text" d="M2761.86 248.82C2763.52 248.82 2764.86 250.163 2764.86 251.82V637.637C2764.86 639.294 2766.21 640.637 2767.86 640.637H2811.44C2813.1 640.637 2814.44 641.98 2814.44 643.637V801.095C2814.44 802.752 2813.1 804.095 2811.44 804.095H2739.74C2738.09 804.095 2736.74 802.752 2736.74 801.095V724.565C2736.74 722.908 2735.4 721.565 2733.74 721.565H2412.67C2411.01 721.565 2409.67 722.908 2409.67 724.565V801.095C2409.67 802.752 2408.32 804.095 2406.67 804.095H2335.71C2334.05 804.095 2332.71 802.752 2332.71 801.095V643.637C2332.71 641.98 2334.05 640.637 2335.71 640.637H2342.33C2398.57 640.637 2422.25 546.889 2422.25 413.88V251.82C2422.25 250.163 2423.59 248.82 2425.25 248.82H2761.86ZM2514.05 329.747C2512.39 329.747 2511.05 331.09 2511.05 332.747V411.476C2511.05 507.309 2498.65 588.233 2461.25 635.555C2459.66 637.577 2461.06 640.637 2463.64 640.637H2670.11C2671.76 640.637 2673.11 639.294 2673.11 637.637V332.747C2673.11 331.09 2671.76 329.747 2670.11 329.747H2514.05Z"></path><path class="logo-text" d="M3274.9 475.577V508.634C3274.9 510.291 3273.56 511.634 3271.9 511.634H2956.95C2955.21 511.634 2953.84 513.129 2953.97 514.858C2960.62 603.242 3000.44 647.047 3068.44 647.047C3139.07 647.047 3173.16 614.465 3181.28 561.514C3181.51 560.03 3182.78 558.908 3184.28 558.908H3268.67C3270.43 558.908 3271.81 560.431 3271.64 562.181C3261.66 663.774 3195.82 733.584 3066.96 733.584C2934.5 733.584 2861.24 643.041 2861.24 488.397V476.378C2861.24 326.542 2935.24 236.801 3069.92 236.801C3205.34 236.801 3274.9 320.132 3274.9 475.577ZM3069.18 323.337C3004.95 323.337 2964.48 359.198 2954.86 439.377C2954.65 441.148 2956.04 442.725 2957.82 442.725H3179.99C3181.7 442.725 3183.07 441.269 3182.96 439.557C3178.4 366.938 3142.13 323.337 3069.18 323.337Z"></path><path class="logo-text" d="M3657.9 436.315C3659.56 436.315 3660.9 434.972 3660.9 433.315V251.82C3660.9 250.163 3662.24 248.82 3663.9 248.82H3749.66C3751.32 248.82 3752.66 250.163 3752.66 251.82V718.565C3752.66 720.222 3751.32 721.565 3749.66 721.565H3663.9C3662.24 721.565 3660.9 720.222 3660.9 718.565V519.442C3660.9 517.785 3659.56 516.442 3657.9 516.442H3456.7C3455.04 516.442 3453.7 517.785 3453.7 519.442V718.565C3453.7 720.222 3452.36 721.565 3450.7 721.565H3364.94C3363.29 721.565 3361.94 720.222 3361.94 718.565V251.82C3361.94 250.163 3363.29 248.82 3364.94 248.82H3450.7C3452.36 248.82 3453.7 250.163 3453.7 251.82V433.315C3453.7 434.972 3455.04 436.315 3456.7 436.315H3657.9Z"></path><path class="logo-icon" d="M4079.05 433.811L3979.55 177.204H3978.68L3979.55 188.987V433.811H3938.53V128.326H4000.06L4095.64 379.696L4191.21 128.326H4252.74V433.811H4211.72V188.987L4212.59 177.204H4211.28L4112.22 433.811H4079.05Z"></path><path class="logo-icon" d="M4337.25 277.577H4300.59C4300.59 270.013 4301.76 262.012 4304.08 253.575C4306.7 244.847 4311.36 236.846 4318.05 229.573C4325.03 222.008 4334.63 215.753 4346.85 210.807C4359.36 205.861 4375.36 203.388 4394.86 203.388C4403.88 203.388 4413.48 204.261 4423.66 206.007C4434.13 207.752 4443.73 211.243 4452.46 216.48C4461.48 221.717 4468.9 229.282 4474.72 239.173C4480.54 248.774 4483.3 261.721 4483.01 278.014L4480.83 380.569C4480.83 385.515 4480.97 389.734 4481.27 393.225C4481.56 396.716 4482.43 399.48 4483.88 401.517C4485.34 403.262 4487.67 404.572 4490.87 405.444C4494.07 406.317 4498.43 406.754 4503.96 406.754V433.811C4501.34 434.393 4498.72 434.829 4496.1 435.12C4493.78 435.411 4490.58 435.557 4486.5 435.557C4480.97 435.557 4476.03 435.12 4471.66 434.247C4467.3 433.665 4463.52 432.356 4460.32 430.32C4457.12 427.992 4454.35 424.792 4452.03 420.719C4449.7 416.355 4447.95 410.536 4446.79 403.262C4439.23 417.227 4428.46 427.265 4414.5 433.374C4400.53 439.484 4385.98 442.539 4370.85 442.539C4347.58 442.539 4328.67 437.302 4314.12 426.828C4299.87 416.064 4292.74 399.044 4292.74 375.769C4292.74 366.168 4294.19 357.585 4297.1 350.021C4300.01 342.165 4305.54 335.328 4313.69 329.51C4321.83 323.4 4332.89 318.454 4346.85 314.672C4361.11 310.599 4379.29 307.544 4401.4 305.507C4409.55 304.925 4416.39 304.344 4421.91 303.762C4427.44 303.18 4431.81 302.016 4435.01 300.27C4438.5 298.234 4440.97 295.324 4442.43 291.542C4443.88 287.76 4444.61 282.232 4444.61 274.959C4444.61 272.34 4444.32 268.558 4443.73 263.612C4443.15 258.666 4441.26 253.72 4438.06 248.774C4434.86 243.828 4429.92 239.61 4423.22 236.119C4416.53 232.336 4407.08 230.445 4394.86 230.445C4391.37 230.445 4386.27 230.736 4379.58 231.318C4373.18 231.9 4366.78 233.791 4360.38 236.991C4353.98 239.901 4348.45 244.556 4343.8 250.956C4339.14 257.066 4336.96 265.94 4337.25 277.577ZM4443.73 339.111L4444.61 320.345C4439.08 325 4432.53 327.619 4424.97 328.2C4417.7 328.491 4407.95 329.51 4395.73 331.255C4387.29 332.71 4379.15 334.165 4371.29 335.619C4363.73 336.783 4357.04 338.82 4351.22 341.729C4345.4 344.348 4340.74 348.275 4337.25 353.512C4334.05 358.458 4332.45 365.44 4332.45 374.46C4332.45 387.552 4336.38 397.735 4344.23 405.008C4352.38 411.991 4362.71 415.482 4375.22 415.482C4382.78 415.482 4390.35 414.464 4397.91 412.427C4405.77 410.099 4412.9 406.172 4419.3 400.644C4425.99 394.825 4431.52 386.97 4435.88 377.078C4440.24 367.186 4442.86 354.53 4443.73 339.111Z"></path><path class="logo-icon" d="M4536.14 212.116H4571.92V242.665H4573.23C4578.76 234.228 4584.72 227.536 4591.12 222.59C4597.82 217.353 4604.36 213.28 4610.76 210.371C4617.45 207.461 4623.85 205.57 4629.96 204.697C4636.37 203.825 4641.89 203.388 4646.55 203.388C4660.22 203.388 4673.02 205.716 4684.95 210.371C4697.17 215.026 4707.79 222.299 4716.81 232.191C4726.12 241.792 4733.39 254.157 4738.63 269.286C4743.87 284.414 4746.49 302.307 4746.49 322.964C4746.49 344.493 4743.72 362.822 4738.19 377.951C4732.67 393.08 4725.25 405.444 4715.94 415.045C4706.63 424.646 4696.01 431.629 4684.08 435.993C4672.44 440.357 4660.22 442.539 4647.42 442.539C4645.38 442.539 4641.31 442.248 4635.2 441.666C4629.09 441.084 4622.4 439.339 4615.13 436.429C4607.85 433.811 4600.43 429.883 4592.87 424.646C4585.6 419.119 4579.49 411.554 4574.54 401.953V514.546H4536.14V212.116ZM4571.92 323.836C4571.92 341.002 4574.1 355.403 4578.47 367.041C4582.83 378.678 4588.36 388.134 4595.05 395.407C4602.03 402.681 4609.45 407.917 4617.31 411.118C4625.46 414.027 4633.16 415.482 4640.44 415.482C4648.29 415.482 4656 414.027 4663.57 411.118C4671.42 407.917 4678.41 402.826 4684.52 395.844C4690.92 388.57 4696.01 379.115 4699.79 367.477C4703.86 355.549 4705.9 340.711 4705.9 322.964C4705.9 294.161 4700.08 271.613 4688.44 255.321C4676.81 238.737 4660.08 230.445 4638.26 230.445C4633.31 230.445 4627.06 231.464 4619.49 233.5C4611.93 235.246 4604.65 239.319 4597.67 245.72C4590.69 252.12 4584.58 261.576 4579.34 274.086C4574.4 286.305 4571.92 302.889 4571.92 323.836Z"></path><path class="logo-icon" d="M4821.84 308.999L4916.54 212.116H4961.49L4857.63 315.108L4967.17 433.811H4921.34L4821.84 322.964V433.811H4783.44V212.116H4821.84V308.999Z"></path><path class="logo-icon" d="M5143.59 369.659H5180.25C5178.79 377.514 5176.03 385.806 5171.95 394.534C5168.17 402.971 5162.5 410.827 5154.93 418.1C5147.66 425.083 5138.21 430.902 5126.57 435.557C5114.93 440.212 5100.53 442.539 5083.36 442.539C5065.03 442.539 5049.47 440.066 5036.67 435.12C5024.16 430.174 5013.68 423.919 5005.25 416.355C4997.1 408.499 4990.7 399.917 4986.05 390.607C4981.39 381.297 4977.9 372.278 4975.57 363.549C4973.53 354.821 4972.23 346.82 4971.64 339.547C4971.35 332.274 4971.21 327.037 4971.21 323.836C4971.21 318.6 4971.5 312.053 4972.08 304.198C4972.66 296.343 4974.12 288.051 4976.44 279.323C4978.77 270.304 4982.26 261.285 4986.92 252.266C4991.57 243.247 4997.83 235.1 5005.68 227.827C5013.83 220.553 5023.87 214.735 5035.8 210.371C5047.72 205.716 5062.27 203.388 5079.44 203.388C5099.8 203.388 5116.53 206.879 5129.62 213.862C5143.01 220.553 5153.48 229.718 5161.04 241.356C5168.9 252.993 5174.43 266.667 5177.63 282.378C5180.83 297.797 5182.43 314.235 5182.43 331.692H5011.79C5011.79 341.293 5013.1 351.039 5015.72 360.931C5018.34 370.823 5022.41 379.842 5027.94 387.988C5033.47 395.844 5040.74 402.39 5049.76 407.626C5058.78 412.863 5069.54 415.482 5082.05 415.482C5100.67 415.482 5114.93 410.972 5124.82 401.953C5135.01 392.643 5141.26 381.878 5143.59 369.659ZM5011.79 304.634H5141.84C5141.55 297.07 5140.53 289.069 5138.79 280.632C5137.04 271.904 5133.84 263.903 5129.19 256.63C5124.82 249.065 5118.71 242.81 5110.86 237.864C5103 232.918 5092.82 230.445 5080.31 230.445C5066.05 230.445 5054.42 233.064 5045.4 238.301C5036.67 243.247 5029.83 249.502 5024.89 257.066C5019.94 264.631 5016.45 272.777 5014.41 281.505C5012.67 289.942 5011.79 297.652 5011.79 304.634Z"></path><path class="logo-icon" d="M5270.72 239.173H5193.91V212.116H5385.93V239.173H5309.12V433.811H5270.72V239.173Z"></path><path class="logo-icon" d="M2.03067 873.275C-3.10088 882.148 3.31354 893.244 13.5766 893.244H295.244C500.506 893.244 628.794 671.375 526.164 493.876L385.33 250.309C380.199 241.435 367.37 241.435 362.238 250.309L266.021 416.712C261.259 424.95 261.259 435.099 266.021 443.337L399.158 673.592C404.289 682.464 397.875 693.56 387.612 693.56H121.339C111.813 693.56 103.011 698.632 98.2471 706.872L2.03067 873.275Z"></path><path class="logo-icon" d="M406.562 173.653C401.799 181.89 401.799 192.04 406.562 200.277L799.546 879.932C804.312 888.172 813.111 893.244 822.637 893.244H1015.07C1025.33 893.244 1031.75 882.148 1026.62 873.275L525.87 7.24988C520.739 -1.62496 507.91 -1.62496 502.778 7.24988L406.562 173.653Z"></path><path class="logo-icon" d="M13.5766 893.244C3.31452 893.244 -3.10038 882.148 2.03067 873.275L98.2471 706.872C103.011 698.632 111.813 693.56 121.339 693.56H387.612C397.194 693.56 403.42 683.888 400.029 675.383C413.401 697.139 421.113 722.739 421.113 750.137C421.113 829.173 356.947 893.244 277.792 893.244C276.137 893.244 274.489 893.216 272.849 893.161C271.38 893.111 269.917 893.039 268.46 892.945V893.244H13.5766Z" fill="url(#paint0_linear_24_245)"></path><defs><linearGradient id="paint0_linear_24_245" x1="0.483701" y1="774.432" x2="421.113" y2="774.432" gradientUnits="userSpaceOnUse"><stop stop-color="#08CAED"></stop><stop offset="1" stop-color="#057C95"></stop></linearGradient></defs></svg>